<svg width="28" height="32" viewBox="0 0 28 32" fill="none" xmlns="http://www.w3.org/2000/svg">
<g clip-path="url(#clip0_13650_1289)">
<path d="M4.21365 14.2139H13.2117V23.6602H14.3987V14.2139H16.9886C17.2929 14.2139 17.5281 14.3024 17.6941 14.4795C17.8657 14.651 17.9514 14.889 17.9514 15.1934V23.6602H19.1385V15.0605C19.1385 14.3965 18.9614 13.8929 18.6072 13.5498C18.2586 13.2012 17.7467 13.0269 17.0716 13.0269H4.21365V14.2139ZM6.8201 23.6519C5.95128 23.6519 5.29829 23.436 4.86112 23.0044C4.42947 22.5783 4.21365 21.9391 4.21365 21.0869V10.9434C4.21365 10.0856 4.42947 9.44368 4.86112 9.01758C5.29829 8.58594 5.95128 8.37012 6.8201 8.37012H21.1805C22.0548 8.37012 22.7078 8.58594 23.1394 9.01758C23.5711 9.44922 23.7869 10.0911 23.7869 10.9434V21.0869C23.7869 21.9391 23.5711 22.5783 23.1394 23.0044C22.7078 23.436 22.0548 23.6519 21.1805 23.6519H6.8201Z" fill="#FF9F0A"/>
</g>
<defs>
<clipPath id="clip0_13650_1289">
<rect width="26.2564" height="32" fill="white" transform="translate(0.87207)"/>
</clipPath>
</defs>
</svg>
