<svg width="36" height="32" viewBox="0 0 36 32" fill="none" xmlns="http://www.w3.org/2000/svg">
<g clip-path="url(#clip0_13650_408)">
<path d="M10.8261 23.7598C9.92957 23.7598 9.25167 23.5329 8.79236 23.0791C8.33305 22.6253 8.1034 21.9557 8.1034 21.0703V10.96C8.1034 10.0745 8.33305 9.40495 8.79236 8.95117C9.25167 8.49186 9.92957 8.26221 10.8261 8.26221H25.037C25.939 8.26221 26.6197 8.49186 27.079 8.95117C27.5383 9.40495 27.7679 10.0745 27.7679 10.96V21.0703C27.7679 21.9557 27.5383 22.6253 27.079 23.0791C26.6197 23.5329 25.939 23.7598 25.037 23.7598H10.8261ZM12.5443 22.2075H23.3436C23.1776 21.7095 22.9258 21.2557 22.5883 20.8462C22.2507 20.4312 21.844 20.0715 21.368 19.7671C20.8921 19.4627 20.3636 19.2275 19.7826 19.0615C19.2015 18.8955 18.59 18.8125 17.9481 18.8125C17.3007 18.8125 16.6864 18.8955 16.1053 19.0615C15.5243 19.2275 14.9958 19.4627 14.5199 19.7671C14.0495 20.0715 13.6428 20.4312 13.2997 20.8462C12.9621 21.2557 12.7103 21.7095 12.5443 22.2075ZM17.9481 17.4595C18.4738 17.465 18.9497 17.3322 19.3759 17.061C19.802 16.7899 20.1395 16.4219 20.3886 15.957C20.6431 15.4867 20.7704 14.9582 20.7704 14.3716C20.7704 13.8237 20.6431 13.3201 20.3886 12.8608C20.1395 12.4015 19.802 12.0335 19.3759 11.7568C18.9497 11.4801 18.4738 11.3418 17.9481 11.3418C17.4224 11.3418 16.9437 11.4801 16.5121 11.7568C16.086 12.0335 15.7484 12.4015 15.4994 12.8608C15.2504 13.3201 15.1259 13.8237 15.1259 14.3716C15.1259 14.9582 15.2504 15.4839 15.4994 15.9487C15.7539 16.4136 16.0943 16.7816 16.5204 17.0527C16.9465 17.3184 17.4224 17.4539 17.9481 17.4595Z" fill="#FF9F0A"/>
</g>
<defs>
<clipPath id="clip0_13650_408">
<rect width="35.0085" height="32" fill="white" transform="translate(0.435547)"/>
</clipPath>
</defs>
</svg>
