<svg width="32" height="32" viewBox="0 0 32 32" fill="none" xmlns="http://www.w3.org/2000/svg">
<g clip-path="url(#clip0_13650_1835)">
<path d="M6.13867 16.8535H9.5752C9.81315 16.8535 9.993 16.8092 10.1147 16.7207C10.2365 16.6322 10.3333 16.5049 10.4053 16.3389L11.2686 14.2222L13.0117 19.8418C13.0671 20.0299 13.1833 20.1545 13.3604 20.2153C13.5374 20.2707 13.7118 20.2679 13.8833 20.207C14.0604 20.1406 14.1794 20.0133 14.2402 19.8252L15.1782 16.8535H17.1538C17.342 16.8535 17.4886 16.8092 17.5938 16.7207C17.7044 16.6322 17.7957 16.5049 17.8677 16.3389L18.7808 14.2139L20.5239 19.8418C20.5848 20.0299 20.701 20.1545 20.8726 20.2153C21.0496 20.2707 21.2267 20.2679 21.4038 20.207C21.5809 20.1406 21.6999 20.0133 21.7607 19.8252L22.6987 16.8535H25.8613V15.5586H22.3169C22.1287 15.5586 21.9793 15.6056 21.8687 15.6997C21.758 15.7882 21.6694 15.9128 21.603 16.0732L21.1382 17.3682L19.395 12.1055C19.3397 11.9229 19.229 11.8011 19.063 11.7402C18.897 11.6794 18.7282 11.6821 18.5566 11.7485C18.3851 11.8094 18.2606 11.9339 18.1831 12.1221L16.772 15.5586H14.8047C14.6165 15.5586 14.4671 15.6056 14.3564 15.6997C14.2458 15.7882 14.1572 15.9128 14.0908 16.0732L13.626 17.3682L11.8911 12.1055C11.8302 11.9229 11.7168 11.8011 11.5508 11.7402C11.3848 11.6794 11.216 11.6821 11.0444 11.7485C10.8729 11.8094 10.7456 11.9339 10.6626 12.1221L9.25977 15.5586H6.13867V16.8535ZM8.95264 23.8428C8.03402 23.8428 7.33398 23.6048 6.85254 23.1289C6.37663 22.653 6.13867 21.964 6.13867 21.062V10.9766C6.13867 10.0635 6.37663 9.37174 6.85254 8.90137C7.33398 8.42546 8.03402 8.1875 8.95264 8.1875H23.0557C23.9743 8.1875 24.6715 8.42546 25.1475 8.90137C25.6234 9.37728 25.8613 10.069 25.8613 10.9766V21.062C25.8613 21.964 25.6234 22.653 25.1475 23.1289C24.6715 23.6048 23.9743 23.8428 23.0557 23.8428H8.95264Z" fill="#FF9F0A"/>
</g>
<defs>
<clipPath id="clip0_13650_1835">
<rect width="32" height="32" fill="white"/>
</clipPath>
</defs>
</svg>
